PathFileType	4	(X/Y/Z)	C:\Users\Basilio\Documents\Thesis Gigler\squatting_fais\c3dfiles\040\SJ_pre4\markers_experimental.trc
DataRate	CameraRate	NumFrames	NumMarkers	Units	OrigDataRate	OrigDataStartFrame	OrigNumFrames
200.000000	200.000000	4	63	mm	200.000000	743	1189
Frame#	Time	FHD			LBHD			RBHD			C7			T10			CLAV			LSHO			LUUPA			LMUPA			LDUPA			LLEP			LMEP			LRAD			LUL			LRFIN			RSHO			RUPA1			RMUPA			RDUPA			RLEP			RMEP			RRAD			RUL			RUFIN			LASI			RASI			USACR			LSACR			RSACR			LTHI1			LTHI2			LTHI3			LTHI4			LLFC			LMFC			LTIB1			LTIB2			LTIB3			LTIB4			LLMAL			LMMAL			LHEE			LMT1			LMT2			LMT5			RTHI			RTHI2			RTHI3			RTHI4			RLFC			RMFC			RTIB1			RTIB2			RTIB3			RTIB4			RLMAL			RMMAL			RHEE			RMT1			RMT2			RMT5			*61			*62			
		X1	Y1	Z1	X2	Y2	Z2	X3	Y3	Z3	X4	Y4	Z4	X5	Y5	Z5	X6	Y6	Z6	X7	Y7	Z7	X8	Y8	Z8	X9	Y9	Z9	X10	Y10	Z10	X11	Y11	Z11	X12	Y12	Z12	X13	Y13	Z13	X14	Y14	Z14	X15	Y15	Z15	X16	Y16	Z16	X17	Y17	Z17	X18	Y18	Z18	X19	Y19	Z19	X20	Y20	Z20	X21	Y21	Z21	X22	Y22	Z22	X23	Y23	Z23	X24	Y24	Z24	X25	Y25	Z25	X26	Y26	Z26	X27	Y27	Z27	X28	Y28	Z28	X29	Y29	Z29	X30	Y30	Z30	X31	Y31	Z31	X32	Y32	Z32	X33	Y33	Z33	X34	Y34	Z34	X35	Y35	Z35	X36	Y36	Z36	X37	Y37	Z37	X38	Y38	Z38	X39	Y39	Z39	X40	Y40	Z40	X41	Y41	Z41	X42	Y42	Z42	X43	Y43	Z43	X44	Y44	Z44	X45	Y45	Z45	X46	Y46	Z46	X47	Y47	Z47	X48	Y48	Z48	X49	Y49	Z49	X50	Y50	Z50	X51	Y51	Z51	X52	Y52	Z52	X53	Y53	Z53	X54	Y54	Z54	X55	Y55	Z55	X56	Y56	Z56	X57	Y57	Z57	X58	Y58	Z58	X59	Y59	Z59	X60	Y60	Z60	X61	Y61	Z61	X62	Y62	Z62	X63	Y63	Z63	

744	3.715	-313.1605834960938	2212.95361328125	-917.520446777344	-421.2369995117189	2130.028076171875	-958.8564453125002	-464.6527404785157	2083.3134765625	-826.780944824219	-423.9916076660157	1970.603271484375	-878.219665527344	-383.2432250976563	1653.65185546875	-874.0122680664065	-280.0238952636719	1940.337280273438	-868.2492675781252	-291.7574157714844	1986.012329101563	-1040.028930664063	-299.6296386718751	1851.554077148438	-1204.542114257813	-276.8956298828126	1807.84716796875	-1194.698974609375	-305.3190917968751	1795.775512695313	-1246.950073242188	-323.6885986328126	1743.2265625	-1287.857666015625	-394.7685546875001	1738.93212890625	-1261.274780273438	-349.3705139160157	1506.719116210938	-1112.109741210938	-291.1611022949219	1479.346313476563	-1152.872436523438	-303.5780944824219	1522.228759765625	-1064.110595703125	-309.6478271484376	1969.732543945313	-697.9503784179689	-375.7918395996094	1878.315673828125	-532.7407836914064	-341.3376464843751	1843.581665039063	-517.6516113281251	-385.318328857422	1836.722045898438	-476.2405700683595	-381.3145446777344	1778.86669921875	-429.0142822265626	-447.8641662597657	1745.228881835938	-472.9244995117189	-301.0447387695313	1595.291137695313	-636.4371948242189	-246.1707000732422	1572.540283203125	-590.0970458984376	-259.4146423339844	1616.370849609375	-694.6762695312501	-208.4502410888672	1493.7998046875	-972.1760864257815	-210.4771423339844	1506.044921875	-749.6486206054689	-385.1148071289064	1542.1708984375	-868.3298950195315	-392.7689208984376	1512.379028320313	-896.1141357421877	-391.7890930175782	1512.813110351563	-840.4080200195315	-374.2844238281251	1250.717529296875	-1051.305908203125	-350.1510009765626	1174.339233398438	-1077.709838867188	-304.6773681640626	1173.217407226563	-1088.464721679688	-377.2498474121094	1122.054809570313	-1065.658325195313	-372.6502075195313	989.3264770507815	-1079.93310546875	-348.1797790527344	947.0139770507815	-954.9714965820315	-336.4908142089844	763.3104858398439	-1088.831787109375	-413.906219482422	730.8176269531251	-1115.76708984375	-370.2105407714844	721.6820068359376	-1116.113891601563	-354.8952331542969	637.7277221679689	-1098.118041992188	-425.0396118164064	548.1022338867189	-1105.036254882813	-367.5657958984376	545.8811035156251	-1039.627075195313	-475.8247680664064	527.8391113281251	-1042.995361328125	-293.3429565429688	411.709930419922	-1082.776489257813	-306.6187744140626	411.8862304687501	-1126.85546875	-372.0114746093751	414.881805419922	-1153.620361328125	-334.4563903808594	1242.09033203125	-658.6543579101564	-312.3095703125001	1179.078247070313	-645.8070678710939	-279.7914428710938	1173.85693359375	-646.5244750976564	-355.9286499023438	1108.505249023438	-654.0134887695314	-375.8368530273438	973.787780761719	-646.0223999023439	-349.0735473632813	943.7982177734377	-774.2759399414065	-350.1371459960938	779.898132324219	-630.7751464843751	-433.6674194335939	717.7930297851564	-612.8323974609376	-388.3898010253907	706.1423339843751	-609.6227416992189	-372.6236877441407	653.5660400390626	-631.0043945312501	-445.9033813476564	550.4794921875001	-612.5270996093751	-406.2672424316407	550.9284057617189	-689.7469482421876	-500.8692932128907	544.0289916992189	-683.0296020507814	-330.6104431152344	401.8244628906251	-655.8170166015626	-341.3638305664063	402.371795654297	-617.1818237304689	-400.9126281738282	401.6124267578126	-581.5101928710939	nan	nan	nan	nan	nan	nan	
745	3.72	-316.2109069824219	2219.42529296875	-917.6878051757815	-422.9783020019532	2134.656494140625	-958.992858886719	-465.7740783691407	2087.066650390625	-827.2366333007815	-424.8435058593751	1975.766845703125	-878.8152465820315	-383.8540649414063	1659.0322265625	-874.2926025390627	-280.8118896484376	1945.611328125	-868.8784790039065	-292.5185852050782	1991.002075195313	-1040.778686523438	-302.2180480957032	1856.946655273438	-1205.974975585938	-278.1849670410157	1813.486938476563	-1196.36962890625	-306.8330078125001	1800.834350585938	-1248.34375	-324.9152221679688	1747.72998046875	-1288.616333007813	-395.3033447265626	1742.334594726563	-1261.087280273438	-349.2193908691407	1511.53369140625	-1111.835571289063	-290.6017456054688	1484.321411132813	-1152.511474609375	-303.5025329589844	1527.34912109375	-1063.802612304688	-309.4974060058594	1975.314331054688	-698.5103759765626	-375.9566040039063	1883.541870117188	-533.0776977539064	-341.8130187988282	1848.927368164063	-518.1707763671876	-386.0174560546876	1841.946044921875	-476.8622131347657	-382.2397155761719	1783.946411132813	-429.4139099121095	-448.7843322753907	1750.958862304688	-473.8626098632814	-304.9192504882813	1600.505859375	-638.2979125976564	-247.9516143798829	1577.249145507813	-591.0339965820314	-260.7822570800782	1621.614868164063	-695.5380859375001	-208.4057159423829	1499.059326171875	-971.8383789062502	-210.9390106201172	1511.605102539063	-749.9634399414064	-385.6051635742189	1546.772583007813	-868.3365478515627	-393.0773315429689	1517.229370117188	-895.946472167969	-392.1808471679689	1517.688720703125	-840.3571777343752	-374.8173522949219	1256.495971679688	-1050.849975585938	-350.3542480468751	1179.580200195313	-1077.449340820313	-305.0646667480469	1178.75048828125	-1088.379516601563	-377.3924255371094	1127.24755859375	-1065.381225585938	-372.7109680175782	994.5618286132815	-1079.846313476563	-348.0771484375001	952.0721435546877	-954.9761962890627	-337.5490417480469	768.4921875000002	-1089.040771484375	-414.9802246093751	736.2965698242189	-1115.582397460938	-371.2096252441407	726.8837280273439	-1116.143432617188	-357.1851196289063	643.0160522460939	-1098.109497070313	-428.1755981445314	553.9128417968751	-1105.104736328125	-368.9681396484376	550.9641723632814	-1039.91015625	-477.7680053710939	533.3695068359376	-1042.393920898438	-296.3358764648438	416.963592529297	-1084.790771484375	-310.6237182617188	417.9124755859376	-1129.102905273438	-375.6184692382813	421.1879272460939	-1154.97509765625	-333.5888977050782	1247.268432617188	-658.5607299804689	-311.3629455566407	1184.416015625	-645.5653686523439	-278.8771362304688	1178.955932617188	-646.3760375976564	-354.7198181152344	1113.510864257813	-653.6036376953126	-373.4671630859376	978.1232910156252	-646.4209594726564	-348.1421508789063	948.7722778320315	-774.236511230469	-349.0129394531251	784.8604125976565	-631.2316284179689	-433.4976501464845	722.7214355468751	-612.7363891601564	-388.7070922851564	710.2626342773439	-611.2386474609376	-373.1968994140626	658.2864990234376	-632.0311279296876	-447.4522399902345	555.9583129882814	-613.4083251953126	-408.2879638671876	556.1513061523439	-690.8963012695314	-503.2056884765626	550.4610595703126	-683.2830200195314	-334.4626770019532	406.134735107422	-658.0982055664064	-344.5321044921876	406.6803283691407	-619.1589965820314	-403.3634338378907	407.1033935546876	-582.5829467773439	nan	nan	nan	nan	nan	nan	
746	3.725	-319.7925415039063	2225.52001953125	-917.321472167969	-424.4100952148439	2138.9736328125	-959.335388183594	-467.0310363769532	2090.54443359375	-827.6448364257815	-425.4159240722657	1980.285400390625	-879.495788574219	-384.4223022460939	1664.380126953125	-874.4906005859377	-281.3746643066407	1950.912719726563	-869.6474609375002	-293.5831909179688	1995.908569335938	-1041.499633789063	-304.5596008300782	1861.904907226563	-1207.290161132813	-279.5349731445313	1819.33251953125	-1198.072509765625	-308.8623962402344	1805.76025390625	-1249.564697265625	-326.0686950683594	1751.92236328125	-1289.32470703125	-395.9375610351564	1745.749145507813	-1260.758911132813	-349.3011169433594	1516.403930664063	-1111.309814453125	-290.5203552246094	1489.23828125	-1151.819702148438	-303.5636596679688	1532.374389648438	-1063.191284179688	-309.3835449218751	1980.396362304688	-699.1398315429689	-375.7620544433594	1888.48046875	-533.3743896484376	-342.0876464843751	1853.50927734375	-518.6134033203126	-385.5844116210939	1846.91650390625	-477.5332641601564	-383.1411743164063	1788.432373046875	-429.9796142578126	-449.4493103027345	1756.31689453125	-474.6074218750001	-305.0125427246094	1604.962890625	-638.8876342773439	-250.3606872558594	1581.393920898438	-592.2097778320314	-262.6933898925782	1626.292724609375	-696.5119628906251	-208.5408172607422	1504.490356445313	-971.4154052734377	-211.1141967773438	1516.914184570313	-749.6282958984376	-385.368377685547	1551.286254882813	-867.7531738281252	-392.0718383789064	1521.507080078125	-895.149108886719	-392.0681152343751	1522.016357421875	-839.934997558594	-374.7083129882813	1261.1806640625	-1050.23876953125	-350.4001770019532	1184.670288085938	-1076.842651367188	-305.3640441894532	1183.940551757813	-1088.408325195313	-377.3006591796876	1132.101196289063	-1064.998901367188	-372.7345275878907	999.6484985351565	-1079.592529296875	-347.3136291503907	956.7595214843752	-955.1590576171877	-339.1447753906251	773.2296142578127	-1089.118774414063	-416.817596435547	741.3552856445314	-1115.189453125	-373.8441772460938	732.1436767578126	-1116.00537109375	-359.0678405761719	647.7764892578126	-1098.248291015625	-430.2213134765626	559.5053710937501	-1104.526000976563	-371.7112731933594	555.9124145507814	-1039.900512695313	-480.311492919922	539.0499267578126	-1041.91748046875	-299.0394592285157	421.4809875488282	-1086.803588867188	-313.6211242675782	422.7991943359376	-1130.621704101563	-379.4199523925782	427.1293334960939	-1155.986206054688	-332.8676147460938	1252.020629882813	-658.4617919921876	-310.6329956054688	1188.90087890625	-645.7344360351564	-278.0012817382813	1184.03369140625	-646.1877441406251	-353.9506835937501	1118.334594726563	-653.3748168945314	-371.5354919433594	982.7056274414065	-646.2144775390626	-347.0213012695313	953.2609863281252	-774.1431274414065	-349.0775146484376	788.8643188476565	-632.6940307617189	-433.6953735351564	727.8410644531251	-612.7518920898439	-388.777801513672	715.3194580078126	-611.4317016601564	-373.8389282226563	662.9251708984376	-633.0727539062501	-448.947235107422	561.4806518554689	-613.8768310546876	-410.7218627929689	561.3353271484376	-691.9888305664064	-505.0897216796876	556.5491333007814	-683.4187622070314	-337.8732910156251	410.3977966308595	-660.2326049804689	-348.3300476074219	410.6179199218751	-622.0993652343751	-406.1836547851564	411.807830810547	-584.1805419921876	nan	nan	nan	nan	nan	nan	
747	3.73	-322.5553588867188	2230.931396484375	-917.317810058594	-426.2957153320314	2143.31640625	-959.651062011719	-467.7825317382814	2093.610107421875	-828.2388305664065	-426.4614257812501	1985.250244140625	-880.0941162109377	-384.9276733398439	1669.5478515625	-874.6032714843752	-282.0981750488282	1955.544799804688	-870.3530273437502	-294.7698059082032	2000.38427734375	-1042.122802734375	-306.6018371582032	1866.248413085938	-1208.25830078125	-280.0646972656251	1824.043212890625	-1199.623779296875	-310.1953125000001	1810.149169921875	-1250.553955078125	-327.2561950683594	1755.915405273438	-1289.765991210938	-396.4293518066407	1748.820068359375	-1260.365844726563	-349.4087219238282	1520.792358398438	-1110.707763671875	-290.5797424316407	1493.57470703125	-1151.213012695313	-303.6434326171876	1537.105712890625	-1062.6982421875	-309.4499511718751	1985.1796875	-699.7438964843751	-374.9879760742188	1893.050048828125	-533.5805664062501	-341.8660888671876	1857.475708007813	-519.2454833984376	-385.5952148437501	1851.467895507813	-477.7546691894532	-382.8395996093751	1792.9189453125	-430.6116638183595	-450.0721130371095	1761.437377929688	-475.1232910156251	-307.1647644042969	1609.052001953125	-640.1135253906251	-252.393295288086	1585.100341796875	-593.8471679687501	-264.4901123046876	1630.722534179688	-697.7824096679689	-208.3624877929688	1509.502563476563	-971.0051269531252	-210.832015991211	1522.4365234375	-749.3109130859376	-385.5082092285157	1555.1689453125	-867.290954589844	-392.5518188476564	1525.515625	-894.6729125976565	-391.9651794433595	1525.899780273438	-839.398620605469	-374.6724853515626	1266.068969726563	-1050.000366210938	-350.3645629882813	1189.51904296875	-1076.814453125	-305.3224792480469	1188.82275390625	-1088.453002929688	-377.0782775878907	1136.999877929688	-1064.78369140625	-373.1119384765626	1004.712463378906	-1079.685791015625	-346.5672912597657	961.4504394531252	-956.1788330078127	-340.2245788574219	777.628601074219	-1089.784790039063	-418.6082763671876	746.4588623046876	-1115.284545898438	-375.2852478027344	736.7902832031251	-1116.529418945313	-361.2820434570313	652.4893188476564	-1098.605102539063	-432.9064331054689	564.6389770507814	-1104.510986328125	-373.6814880371094	560.4749145507814	-1040.141479492188	-482.4852294921876	544.2093505859376	-1041.36181640625	-302.5964965820313	426.0631103515626	-1088.16259765625	-317.9910888671876	428.0025329589845	-1132.970581054688	-383.6069641113282	432.701141357422	-1156.992431640625	-332.4490051269532	1256.494384765625	-658.0747680664064	-309.7438354492188	1193.205322265625	-645.5640869140626	-277.2291259765626	1188.593139648438	-645.8707275390626	-352.7610778808594	1122.725830078125	-653.2719116210939	-370.1358032226563	987.1186523437502	-646.0493164062501	-345.8235473632813	957.6728515625002	-774.0186157226565	-348.3115844726563	793.3566894531252	-633.0256958007814	-433.4781494140626	732.4121704101564	-613.1179809570314	-389.075653076172	719.3705444335939	-612.1568603515626	-374.5720214843751	667.2160644531251	-634.3211059570314	-450.4047241210939	566.2668457031251	-614.4812011718751	-412.9628295898439	566.2315673828126	-692.9257812500001	-507.4819946289064	562.4497680664064	-683.3700561523439	-341.2877197265626	414.6746215820314	-662.3908691406251	-351.0998840332032	414.653289794922	-624.2420043945314	-408.5828857421876	416.5169677734376	-585.4045410156251	nan	nan	nan	nan	nan	nan	
